<?xml version="1.0" encoding="utf-8"?>
<!-- Generator: Adobe Illustrator 22.1.0, SVG Export Plug-In . SVG Version: 6.00 Build 0)  -->
<svg version="1.1" xmlns="http://www.w3.org/2000/svg" xmlns:xlink="http://www.w3.org/1999/xlink" x="0px" y="0px"
	 viewBox="87.134 -22.402 395.28 395.222" enable-background="new 87.134 -22.402 395.28 395.222" xml:space="preserve">
<g id="Layer_5">
	<path fill="#FFFFFF" d="M455.123,372.819H114.367c-14.978,0-27.232-12.255-27.232-27.232V4.83
		c0-14.978,12.255-27.232,27.232-27.232h340.757c14.978,0,27.232,12.255,27.232,27.232v340.757
		C482.356,360.565,470.101,372.819,455.123,372.819z"/>
</g>
<g id="Group_1">
	<path id="Right_top_of_bot_frame_1_" fill="#565656" d="M365.648,276.256v-24.797c0-5.659-4.588-10.247-10.247-10.247h-24.257
		c0.016,0.632,0.048,1.261,0.048,1.898c0,3.296-0.242,6.534-0.665,9.715L365.648,276.256z"/>
	<path id="Left_top_of_bot_frame_1_" fill="#565656" d="M184.872,243.109c0-0.637,0.032-1.266,0.048-1.897h-24.258
		c-5.659,0-10.247,4.588-10.247,10.247v24.854l35.141-23.347C185.118,249.739,184.872,246.451,184.872,243.109z"/>
	<path id="Smoke_1_" fill="#565656" d="M250.745,108.228c0.618,0.037,1.231,0.187,1.802,0.455
		c4.584-3.906,18.536-13.881,19.472-13.695c0.525,0.104,1.977,1.127,3.227,2.269c8.661,7.939,24.121,7.414,30.465-1.031l1.542-9.859
		l7.398-2.479c7.585,2.116,13.032,13.023,18.216,11.04c3.496-1.336,3.716-1.319,5.793,0.457c5.307,4.54,7.385,5.496,15.396,7.088
		c7.096,1.41,8.634,1.439,12.972,0.247c4.855-1.336,12.887-6.491,13.29-8.532c0.414-2.079,2.418-1.619,7.314,1.678
		c4.41,2.971,6.013,3.558,13.985,5.131c7.891,1.558,9.645,1.63,14.224,0.583c6.255-1.429,12.764-5.329,16.508-9.893
		c4.222-5.143,6.197-16.176,4.081-22.8c-0.868-2.712-2.966-6.918-4.667-9.346l-3.088-4.412l1.643-8.089
		c2.478-12.22,0.607-20.596-6.815-30.453C415.54,6.006,405.122,0.017,391.1-2.043c-11.006-1.617-17.826-0.562-26.856,4.151
		c-11.94,6.234-17.16,13.528-18.908,26.416l-1.04,7.66l-5.119,2.814l-5.12,2.811l-4.851-2.721
		c-6.299-3.531-18.007-5.516-24.269-4.114c-8.082,1.809-15.134,6.952-18.875,13.762l-1.694,3.086l-6.875-1.363
		c-12.549-2.493-23.928,0.202-31.551,7.47c-5.704,5.439-7.172,8.598-8.435,18.142c-1.047,7.89-1.241,8.405-3.963,10.525
		c-3.954,3.076-6.007,7.197-6.965,13.978C225.955,104.979,246.024,106.073,250.745,108.228z"/>
	<g id="Bottom_frame">
		<path fill="#565656" d="M381.532,311.02c-0.651-2.439-2.252-4.613-4.566-6.051l-51.79-32.015
			c-11.228,26.003-37.054,44.204-67.132,44.204c-30.082,0-55.911-18.205-67.137-44.214l-51.807,32.026
			c-2.314,1.439-3.916,3.613-4.567,6.051l-0.326-0.021v32.476v6.798v2.607h122.8l0.576,0.149v-0.149h84.107l40.169,0.288v-0.288
			v-9.405v-32.476L381.532,311.02z M186.538,325.151c-4.925,0-8.917-3.993-8.917-8.918c0-4.924,3.992-8.917,8.917-8.917
			c4.925,0,8.917,3.993,8.917,8.917C195.455,321.159,191.463,325.151,186.538,325.151z M330.243,325.635
			c-4.925,0-8.918-3.993-8.918-8.918c0-4.924,3.993-8.917,8.918-8.917c4.925,0,8.917,3.993,8.917,8.917
			C339.159,321.642,335.168,325.635,330.243,325.635z"/>
	</g>
	<path id="Middle_Circle_1_" fill="#03629F" d="M315.552,243.882c0,31.79-25.77,57.561-57.56,57.561
		c-31.789,0-57.561-25.77-57.561-57.561c0-31.789,25.771-57.56,57.561-57.56C289.783,186.321,315.552,212.092,315.552,243.882z"/>
</g>
<g id="Layer_4">
	<g>
		<g>
			<path fill="#03629F" d="M202.82,198.158c12.54-16.711,32.514-27.523,55.015-27.523c21.866,0,41.332,10.221,53.923,26.132v-18.285
				c-13.183-14.989-32.491-24.459-54.021-24.459c-22.022,0-41.721,9.906-54.916,25.494V198.158z"/>
		</g>
	</g>
</g>
<g id="Smoke_Stack">
	<g>
		<g>
			<path fill="#03629F" d="M208.388,139.002h5.897v11.039c11.746-6.624,26.617-10.593,42.806-10.593
				c16.191,0,31.062,3.969,42.809,10.594v-11.04h5.896c5.679,0,10.282-4.588,10.282-10.246V96.349
				c0-5.659-4.603-10.246-10.282-10.246h-97.408c-5.679,0-10.283,4.587-10.283,10.246v32.408
				C198.106,134.414,202.71,139.002,208.388,139.002z"/>
		</g>
	</g>
</g>
</svg>
