<?xml version="1.0" encoding="utf-8"?>
<!-- Generator: Adobe Illustrator 22.1.0, SVG Export Plug-In . SVG Version: 6.00 Build 0)  -->
<svg version="1.1" xmlns="http://www.w3.org/2000/svg" xmlns:xlink="http://www.w3.org/1999/xlink" x="0px" y="0px"
	 viewBox="87.134 -22.402 395.28 395.222" enable-background="new 87.134 -22.402 395.28 395.222" xml:space="preserve">
<g id="Group_1">
	<path id="Right_top_of_bot_frame" fill="#565656" d="M373.5,287.414v-27.535c0-6.284-5.095-11.379-11.379-11.379h-26.936
		c0.018,0.702,0.054,1.4,0.054,2.107c0,3.66-0.268,7.256-0.738,10.788L373.5,287.414z"/>
	<path id="Left_top_of_bot_frame" fill="#565656" d="M172.762,250.607c0-0.707,0.036-1.405,0.053-2.107h-26.937
		c-6.284,0-11.378,5.094-11.378,11.378v27.599l39.022-25.925C173.036,257.969,172.762,254.318,172.762,250.607z"/>
	<path id="Smoke" fill="#565656" d="M245.909,100.831c0.687,0.041,1.367,0.208,2.001,0.505c5.09-4.337,20.583-15.413,21.622-15.207
		c0.583,0.115,2.195,1.252,3.583,2.52c9.617,8.816,26.784,8.233,33.829-1.145l1.712-10.948l8.215-2.753
		c8.423,2.35,14.471,14.461,20.228,12.259c3.882-1.483,4.126-1.464,6.433,0.508c5.893,5.041,8.2,6.103,17.096,7.871
		c7.88,1.566,9.587,1.598,14.404,0.274c5.392-1.483,14.31-7.208,14.758-9.475c0.46-2.308,2.685-1.798,8.122,1.863
		c4.897,3.299,6.677,3.951,15.529,5.698c8.763,1.73,10.71,1.81,15.795,0.648c6.945-1.586,14.174-5.917,18.331-10.985
		c4.688-5.711,6.881-17.962,4.531-25.317c-0.964-3.012-3.294-7.682-5.183-10.378l-3.429-4.899l1.824-8.982
		c2.752-13.569,0.674-22.87-7.567-33.816c-8.842-11.749-20.41-18.399-35.98-20.686c-12.222-1.795-19.795-0.624-29.821,4.61
		c-13.259,6.923-19.055,15.021-20.996,29.333l-1.155,8.505l-5.685,3.125l-5.686,3.122l-5.387-3.021
		c-6.994-3.921-19.995-6.125-26.949-4.569c-8.975,2.008-16.805,7.719-20.959,15.282l-1.881,3.427l-7.635-1.514
		c-13.935-2.769-26.57,0.225-35.035,8.295c-6.334,6.04-7.964,9.547-9.366,20.145c-1.162,8.761-1.378,9.333-4.4,11.687
		c-4.391,3.416-6.67,7.992-7.734,15.522C218.382,97.224,240.667,98.439,245.909,100.831z"/>
	<g id="Bottom_frame">
		<path fill="#565656" d="M391.138,326.018c-0.722-2.708-2.501-5.122-5.071-6.72l-57.509-35.551
			c-12.468,28.875-41.146,49.085-74.546,49.085c-33.404,0-62.086-20.216-74.551-49.097l-57.528,35.563
			c-2.57,1.598-4.349,4.012-5.072,6.72l-0.362-0.023v36.063v7.549v2.895h136.36l0.64,0.165V372.5h93.395l44.605,0.319V372.5v-10.443
			v-36.063L391.138,326.018z M174.612,341.709c-5.469,0-9.902-4.434-9.902-9.902c0-5.468,4.433-9.901,9.902-9.901
			c5.469,0,9.902,4.434,9.902,9.901C184.514,337.275,180.081,341.709,174.612,341.709z M334.185,342.246
			c-5.469,0-9.902-4.434-9.902-9.902c0-5.468,4.434-9.901,9.902-9.901c5.469,0,9.901,4.434,9.901,9.901
			C344.087,337.813,339.654,342.246,334.185,342.246z"/>
	</g>
	<path id="Middle_Circle" fill="#03629F" d="M317.873,251.465c0,35.301-28.615,63.917-63.916,63.917
		c-35.3,0-63.917-28.616-63.917-63.917c0-35.3,28.617-63.916,63.917-63.916C289.258,187.548,317.873,216.165,317.873,251.465z"/>
</g>
<g id="Layer_4">
	<g>
		<g>
			<path fill="#03629F" d="M192.692,200.692c13.925-18.556,36.104-30.562,61.09-30.562c24.28,0,45.896,11.35,59.877,29.018v-20.304
				c-14.639-16.644-36.078-27.161-59.986-27.161c-24.454,0-46.328,11-60.98,28.309V200.692z"/>
		</g>
	</g>
</g>
<g id="Smoke_Stack">
	<g>
		<g>
			<path fill="#03629F" d="M198.875,135.004h6.548v12.258c13.043-7.356,29.556-11.763,47.533-11.763
				c17.978,0,34.492,4.408,47.536,11.764v-12.259h6.547c6.307,0,11.418-5.094,11.418-11.377V87.641
				c0-6.284-5.111-11.378-11.418-11.378H198.875c-6.306,0-11.418,5.094-11.418,11.378v35.987
				C187.457,129.91,192.57,135.004,198.875,135.004z"/>
		</g>
	</g>
</g>
</svg>
