<svg version="1" xmlns="http://www.w3.org/2000/svg" width="933.333" height="933.333" viewBox="0 0 700.000000 700.000000"><path d="M524.5 1.9c-15.6 3.8-32.3 13.4-42.3 24.1-4 4.3-9.5 13.9-11.7 20.4-.9 2.7-2.5 10.6-3.5 17.4-1.1 6.9-2 12.6-2.2 12.7-.2.2-4.6 2.8-9.9 5.8l-9.7 5.4-6.8-3.8c-7.2-4-9.8-5-19.9-7.5-14.3-3.5-22.6-3.8-35-1-11.4 2.5-25.8 13.8-32.5 25.5-1.9 3.3-4.2 6.1-5 6-.8 0-5.8-.9-11-1.9-9.4-1.9-27.4-2.2-34.4-.6-14.6 3.4-27.9 12.1-37.4 24.6-3.2 4.1-6.1 13.7-8.2 26.9-1.1 6.8-2.8 13.7-3.8 15.5l-1.8 3.1-27.2.2c-17.5.1-28.5.6-30.7 1.3-4.8 1.6-9.2 5.4-11.7 10.4-2.1 4-2.2 5.3-2.1 39.6 0 38.2.2 40.6 5.1 45.8 5.2 5.6 9.6 6.9 23.2 7.1l3.6.1-.1 10.1c-.1 5.5.2 10.2.6 10.4.4.3 2.6-.6 5-1.9 10.8-5.9 33.8-13.4 46.3-15 2.7-.4 5.2-.9 5.5-1.1 1.1-.6 18.6-1.8 26.7-1.7 7.4 0 21.1.9 25.2 1.6.9.2 4 .7 6.7 1.1 13.2 1.9 33.2 8.3 45.5 14.5 3.3 1.7 6.1 3 6.4 3 .3 0 .5-4.5.4-10.1 0-5.5.2-10.2.5-10.5.2-.2 4.2-.6 8.8-.7 7-.3 9.1-.8 12.5-3 4.9-3 7.8-6.8 9.1-11.7.5-1.9.9-19.5.9-39l-.1-35.5-2.7-4.4c-2.6-4.3-6-7.2-10.8-9.3-2.4-1-2.2-1.2 3.5-3 3.3-1.1 6.7-2 7.6-2 2.5.1 9.9 5 17.4 11.7 8 7.1 13.1 10.5 15.4 10 .9-.2 3.5-.8 5.9-1.3 4.1-1 4.4-.9 11.5 4.4 8.5 6.3 14.3 8.7 28 11.5 14.6 3 21.2 2.3 33.1-3.5 8-3.9 14.2-8.6 18.4-14 1.8-2.2 3.7-1.6 14.4 4.9 9.2 5.5 15 7.4 32.4 10.5 11.4 1.9 16 1.8 24.2-.5 26.6-7.8 40.7-26.1 39.7-51.9-.2-4.5-.5-9-.8-10.1-1.1-4.3-5.7-13.7-10.6-21.3-2.8-4.4-4.9-8.6-4.7-9.3.3-.8.7-2.8 1-4.4.2-1.7.9-5 1.4-7.5 5.4-23.5 2-40.7-11.5-59.7C608 20.2 588.2 7.5 563.5 2.6c-1.6-.4-4.1-.9-5.5-1.2-1.4-.2-7.9-.7-14.5-.9-9-.2-13.7.1-19 1.4zM286 308.8c-23.5 1.3-50 10.4-70.2 24-8.8 5.9-14.1 10.5-22.5 19.1l-6.3 6.5v36.7l5.8-6.8c11-12.8 24.1-23.3 39.2-31.5 10.3-5.6 28.4-11.8 38.5-13.3 2.2-.4 5.4-1 7-1.4 3.4-.9 31-.7 37 .3 2.2.3 5.4.9 7 1.3 1.7.4 3.2.7 3.5.8 25.7 5.1 52.8 21.4 71.9 43.1l4.1 4.7v-36.2l-5.2-5.2c-17.6-17.2-34.8-27.9-56.9-35.3-16.5-5.5-35.1-7.9-52.9-6.8z"/><path d="M272.5 374.5c-12.5 2.6-23.7 6.9-34.4 13.2-9.8 5.8-14.1 9.2-22.7 17.7-8.4 8.5-13.6 15.5-19.2 25.6-3.9 7.2-10.7 24-9.6 24 .2 0 0 .8-.5 1.7-.5 1-1.2 3.5-1.5 5.5-.3 2.1-.9 5.5-1.2 7.5-.3 2.1-.7 8.5-.8 14.3-1.2 57 42.7 106.8 99.9 113.5 8.7 1 25 .6 32.5-1 1.4-.2 3.9-.7 5.5-1.1 16.4-3.2 37.7-14.5 51.6-27.3 47.4-43.4 48.5-118.2 2.4-163.6-26.9-26.6-64.8-37.7-102-30zM101.8 480.1c-8.1 1.2-13.3 5.1-16.3 12.3-1.3 3.1-1.6 8.2-1.6 29.3 0 14 .2 25.7.5 26 .2.2 15.8-9.7 34.6-22.2l34.1-22.6-.6-4.7c-.3-2.6-.6-7.7-.7-11.5-.2-5.3-.5-6.7-1.8-6.8-10.2-.4-44.7-.2-48.2.2zM441.4 479.8c-2 .3-2.2 1-2.3 8.4-.1 4.4-.4 9.5-.6 11.2-.4 2.6 0 3.5 2.8 5.4 6.6 4.7 64.7 43.2 65.2 43.2.3 0 .5-11.7.5-26 0-28.9-.3-30.5-6.4-36.4-5.4-5.3-8.3-5.8-33.9-6-12.8 0-24.2 0-25.3.2z"/><path d="M140 556.6c-19.2 12-32.7 20.4-68 42.2-5.8 3.5-11.9 7.8-13.7 9.5-6.4 6-6.3 5.4-6.3 50.1 0 22.3.3 40.6.8 40.7.4.1 109.9.2 243.5.3l242.7.2v-40.9c0-38.2-.1-41-1.9-44.5-1.1-2-3.2-4.9-4.8-6.3-1.5-1.5-17.2-11.6-34.8-22.4-17.6-10.8-34.7-21.4-38-23.5-20.7-13-30.7-19-31.3-19-.5 0-2.7 3.7-5.1 8.3-19.7 38.4-56.6 66.1-100.1 75.3-6.1 1.2-13.2 1.8-25 1.8-19.7.1-26.7-.7-41-4.6-37.5-10.2-70.6-37.1-89-72.6-2.4-4.5-4.8-8.2-5.4-8.1-.6 0-10.8 6.1-22.6 13.5zm23 55.4c8.9 4.5 11.9 15.4 6.6 24.4-3.1 5.3-8.2 8-15.2 8-15.4.2-22.7-19.6-11.1-30.1 4.9-4.5 13.5-5.5 19.7-2.3zm281.3.4c4.4 1.8 9.5 7.8 10.3 12.1 2.4 13.1-9 23.9-21.7 20.5-12.6-3.4-17.1-20.1-7.8-29 5.1-4.8 12.8-6.3 19.2-3.6z"/></svg>